<svg fill="none" height="777" viewBox="0 0 648 777" width="648" xmlns="http://www.w3.org/2000/svg"><path clip-rule="evenodd" d="m643.298 613.63c1.926 2.791 3.266 6.064 3.813 9.664.39 2.577.343 5.122-.084 7.558-.426 2.435-1.248 4.845-2.491 7.134-1.737 3.197-4.109 5.815-6.869 7.779-2.755 1.972-5.982 3.35-9.527 3.922-2.536.41-5.04.374-7.435-.049l-.066-.011-.115-.021c-2.587 4.535-5.519 9.658-8.655 15.108-11.114 19.311-24.749 42.744-34.282 59.089 3.846 3.52 6.524 8.393 7.259 14.02 1.644 12.609-7.099 24.252-19.512 25.983-9.896 1.381-19.156-3.952-23.338-12.56-7.951.981-17.628 2.163-28.169 3.424-36.323 4.345-82.861 9.686-104.121 12.115-.058.252-.123.501-.198.747-.602 2.033-1.686 3.83-3.101 5.273l-.023.023c-1.416 1.443-3.182 2.55-5.181 3.167-1.141.355-2.345.547-3.58.55-.772.003-1.53-.066-2.27-.204-.147-.016-.294-.034-.441-.055-5.283-.755-9.304-4.801-10.351-9.813-32.833-4.24-129.142-16.703-202.786-26.439-28.636-3.785-53.842-7.171-70.559-9.428-.306.604-.636 1.189-.99 1.757l-.011.018-.034.054c-1.1 1.76-2.411 3.332-3.885 4.693l-.04.037c-1.093 1.011-2.292 1.92-3.586 2.708l-.028.017-.055.033c-1.421.86-2.9485 1.571-4.5665 2.106-1.6556.553-3.388.917-5.1659 1.068l-.0511.004-.0213.002c-.9449.079-1.8864.096-2.8183.054l-.064-.004-.1032-.004-.1381-.007-.1391-.009-.139-.01-.139-.01-.1374-.011-.1401-.011-.1384-.014-.1386-.013-.1382-.015-.1397-.015-.138-.016-.1394-.017-.1322-.018-.1378-.018-.1376-.02-.1374-.021-.1374-.021-.1371-.023-.1356-.023-.137-.024-.1368-.025-.1354-.025-.1366-.027-.1352-.026-.1348-.03-.1349-.028-.1347-.03-.1346-.031-.1346-.031-.0461-.01-.0883-.022-.0501-.013-.0841-.02-.0542-.014-.0786-.019-.0595-.016-.0745-.019-.0621-.018-.0703-.018-.0676-.019-.0648-.017-.0824-.024c-2.1682-.604-4.1906-1.521-6.0247-2.696l-.0167-.01-.0528-.034c-1.728-1.111-3.2668-2.436-4.6006-3.927l-.0349-.041c-.9888-1.107-1.8781-2.32-2.6481-3.631l-.0169-.03-.0327-.056c-.8387-1.439-1.5297-2.989-2.0505-4.629-.536-1.682-.8854-3.441-1.0247-5.246l-.0038-.052-.0023-.023c-.072-.96-.0854-1.917-.04-2.863l.0037-.065.0051-.105.009-.141.0088-.141.009-.141.0104-.141.0118-.142.0131-.14.0131-.141.0147-.142.0145-.141.0159-.141.0161-.142.0188-.141.0162-.133.0202-.142.02-.14.0214-.139.0212-.139.0227-.139.0228-.14.0241-.139.0253-.138.0255-.139.0267-.138.0283-.138.028-.138.0295-.137.0294-.137.0308-.137.0308-.137.0123-.047.0213-.09.0113-.049.0206-.086.0149-.055.0201-.081.0154-.059.0193-.076.0163-.065.0186-.072.0183-.068.0179-.066.0232-.084c.6046-2.207 1.5166-4.265 2.6811-6.137l.0109-.017.0343-.053c1.0996-1.761 2.4109-3.332 3.8844-4.694l.0404-.037c.5922-.548 1.2165-1.066 1.8682-1.549-2.8705-9.873-6.5457-22.564-10.5673-36.573-10.9104-38.012-24.4092-85.691-32.076-112.826-1.6752.219-3.3868.25-5.1068.076l-.0912-.01-.0083-.002c-.7787-.081-1.5462-.202-2.3023-.363l-.0981-.021-.0395-.009-.0967-.021-.0395-.008-.0978-.023c-1.4272-.328-2.8377-.802-4.2112-1.427-1.2632-.572-2.4549-1.25-3.5656-2.025l-.0293-.021-.0956-.068-.0192-.013-.0471-.033-.0485-.034-.1132-.082-.0293-.022c-.6192-.451-1.2208-.937-1.7991-1.458l-.0335-.03-.0124-.012c-1.5794-1.424-2.9271-3.044-4.0278-4.802-.747-1.188-1.3901-2.454-1.9159-3.784l-.0432-.11-.0102-.027-.041-.106-.002-.006c-.5485-1.437-.9482-2.913-1.19953-4.405-.35125-2.051-.43181-4.169-.2127-6.301l.01047-.092.0014-.01c.08352-.791.20631-1.571.36826-2.341l.0215-.101.0085-.04.0209-.097.0087-.042.0227-.099c.3297-1.452.8029-2.887 1.424-4.286.5688-1.288 1.2434-2.501 2.009-3.634l.0213-.031.0673-.097.0124-.019.0337-.049.0338-.05.0811-.115.0211-.03c.4469-.631.9275-1.244 1.4431-1.835l.0301-.035.0116-.012c1.4083-1.612 3.0091-2.99 4.7438-4.116.8855-.577 1.8132-1.096 2.779-1.547-.8531-10.06-1.9323-22.928-3.0853-37.108-3.6056-44.3-8.0195-101.381-9.88531-125.649-.6248-.167-1.23121-.383-1.81568-.645-1.96551-.874-3.6013-2.217-4.82946-3.849-1.23131-1.63-2.0834-3.585-2.405291-5.743-.17277-1.148-.191856-2.33-.040925-3.514l.004999-.035.006202-.043.003572-.035c.160563-1.183.484633-2.32.949843-3.384.86877-2.002 2.19814-3.671 3.80964-4.928 1.60915-1.259 3.53687-2.134 5.66141-2.472.6668-.107 1.3439-.159 2.0269-.154 5.0986-14.101 14.61-40.404 25.9755-71.781-1.2677-.825-2.4432-1.774-3.5141-2.827l-.0553-.055c-2.6157-2.581-4.6371-5.823-5.7839-9.527-.6575-2.108-1.0213-4.336-1.0492-6.626-.0306-2.291.2744-4.532.8778-6.662 1.0506-3.745 2.987-7.058 5.534-9.732l.0547-.058c2.5508-2.671 5.7497-4.74 9.3991-5.923 2.0778-.678 4.2717-1.059 6.5262-1.098 1.1304-.021 2.2499.043 3.3506.191 11.205-30.893 23.0237-63.427 33.616-92.478 10.8335-29.7183 20.3957-55.7855 26.6237-72.7324-1.657-1.4064-3.09-3.0361-4.268-4.8281l-.02-.0299c-2.028-3.0758-3.341-6.6747-3.707-10.5481-.214-2.2108-.113-4.4782.332-6.7321.44-2.2546 1.201-4.3903 2.233-6.3547 1.798-3.44548 4.372-6.27609 7.41-8.35058l.028-.01885c3.036-2.07628 6.585-3.42957 10.396-3.818657 2.177-.227045 4.406-.135462 6.622.305447 2.217.43691 4.315 1.20082 6.243 2.2389 3.38 1.81248 6.152 4.41491 8.179 7.49184l.018.0297c2.03 3.076 3.343 6.6763 3.708 10.5481.206 2.1427.119 4.3349-.291 6.5196 23.089 9.0161 61.194 23.9256 91.797 36.0436 10.587 4.192 20.271 8.055 28.129 11.2003l.093-.1054.045-.052.047-.0533.022-.0268c.687-.7772 1.42-1.5005 2.192-2.1669l.027-.0218.025-.0223c1.128-.971 2.334-1.8153 3.598-2.5328 2.402-1.3686 5.087-2.3142 7.965-2.7209 2.053-.2949 4.159-.3066 6.259-.0093l.013.002.062.0088.077.011.061.0087.078.0126.059.0085.08.0128.057.0096.029.0042.051.0086.058.0097.033.0061.047.0083.057.0095.035.0065.045.0079.056.0108.04.0071.043.0075.056.0109.041.0073.039.0071.056.0108.045.0093.036.0079.056.0109.049.0099.031.0059.058.0124.05.0101.086.018.079.0184.058.0127.078.0168.058.014.076.0166.062.0145.074.0178.061.0144.137.0339.136.0351.136.0352.137.0353.135.0378.136.0381.135.0378.034.0105c1.777.5153 3.507 1.2567 5.152 2.2329 1.316.7779 2.533 1.6771 3.638 2.6775l.053.0477.025.0235c.761.6943 1.47 1.4352 2.122 2.218l.022.0262.021.0257c.95 1.1411 1.776 2.3629 2.475 3.6436.279.5084.54 1.0297.781 1.5639 4.959-.4692 10.537-.9883 16.474-1.5262 21.698-1.9645 48.149-4.225 66.462-5.771.221-2.1146.736-4.2356 1.567-6.3058 4.74-11.8021 17.997-17.5192 29.588-12.7567 8.458 3.4751 13.706 11.576 14.081 20.2897 15.323 2.139 36.036 5.0583 53.227 7.5812 3.825.5611 7.473 1.1041 10.846 1.6104.575-1.0844 1.23-2.113 1.956-3.0787l.042-.0569c1.778-2.3589 4.024-4.3996 6.681-5.9602 1.867-1.0996 3.902-1.9397 6.058-2.4682.758-.1872 1.521-.3338 2.282-.4377 1.521-.2109 3.082-.2663 4.66-.1521 2.255.1609 4.42.6575 6.449 1.4429 2.053.7918 3.944 1.8704 5.636 3.1832l.056.0422c2.312 1.7956 4.311 4.0688 5.832 6.7623 1.074 1.8927 1.891 3.9571 2.401 6.1461.181.7697.32 1.5436.42 2.3175.2 1.5451.246 3.1308.126 4.7358-.168 2.292-.667 4.495-1.45 6.561-.788 2.091-1.859 4.018-3.157 5.744l-.044.057c-1.777 2.359-4.023 4.401-6.681 5.96-1.114.658-2.288 1.221-3.511 1.681.05 6.267.099 13.538.134 21.349.134 30.752.1 69.868.07 89.109.389.14.769.297 1.14.474.944.447 1.81 1.006 2.589 1.654l.042.035c.46.385.896.809 1.302 1.267l.039.044c.649.737 1.219 1.561 1.689 2.463.416.791.751 1.632.992 2.515l.018.065c.132.489.234.983.306 1.481l.008.056c.072.505.112 1.009.122 1.51l.002.065c.012.685-.033 1.379-.135 2.072-.181 1.241-.54 2.426-1.051 3.525-.444.963-.998 1.847-1.64 2.642l-.054.066-.02.024c12.348 21.223 41.624 71.584 64.18 110.749 7.301 12.673 13.889 24.176 18.999 33.119l.043-.009.05-.009.089-.017.049-.009.089-.015.056-.011c.821-.145 1.642-.242 2.461-.294l.055-.003.024-.002c1.785-.108 3.599-.003 5.413.336 2.22.409 4.319 1.146 6.25 2.153 1.359.707 2.625 1.543 3.789 2.489l.08.066c.769.63 1.501 1.314 2.191 2.054l.006.006.076.081c1.47 1.588 2.737 3.414 3.738 5.456.162.331.316.663.462.998l.003.007c.016.038.033.075.049.113l.009.022.049.117.045.108c.256.617.486 1.248.689 1.889l.032.102.041.134.041.135.04.134.038.135.039.136.012.047.024.089.014.049.023.087.014.05.007.03.014.056.014.052.008.031.013.055.014.052.008.034.012.05.014.053.009.036.011.049.013.054.009.037.01.046.013.055.009.039.01.045.012.054.01.042.009.042.012.055.009.044.008.04.012.054.01.046.008.038.01.055.011.048.006.037.011.053.011.053.006.032.011.054.01.055.015.083.011.059.016.081.015.089.008.05.015.09.01.057c.139.834.231 1.668.279 2.501l.003.056.001.024c.097 1.813-.015 3.658-.357 5.504-.413 2.258-1.147 4.395-2.148 6.362-.702 1.385-1.531 2.676-2.467 3.863l-.065.082c-.623.785-1.3 1.532-2.03 2.237l-.008.006-.079.077c-1.57 1.502-3.372 2.798-5.385 3.825-.326.167-.654.325-.985.475l-.007.003c-.037.016-.074.034-.111.05l-.022.01-.116.05-.106.047c-.608.263-1.228.499-1.862.709l-.1.033-.133.042-.132.042-.132.042-.134.039-.133.039-.047.014-.087.024-.048.015-.086.023-.049.015-.03.007-.055.015-.051.014-.047.012c-.5 5.607-1.079 12.01-1.716 18.853-2.659 28.579-6.232 64.819-8.048 83.115.419.198.824.42 1.216.665 1.318.816 2.499 1.895 3.46 3.213.708.963 1.284 2.041 1.699 3.208l.017.05c.122.344.227.692.317 1.041l.009.031.018.075.019.076.019.075.017.076.01.045.018.076.016.075.006.032c.145.686.234 1.393.261 2.112.053 1.263-.084 2.501-.384 3.681-.315 1.24-.808 2.403-1.448 3.459-.81 1.344-1.876 2.551-3.178 3.534-.309.234-.628.454-.959.66 2.287 11.216 5.815 28.664 8.56 42.855.112.576.221 1.145.329 1.708.173.026.344.055.517.085 2.395.421 4.761 1.244 7.006 2.498 3.137 1.75 5.703 4.149 7.623 6.945zm-571.752-239.927c-3.9655-20.186-12.3444-62.964-18.7426-96.499-1.6104-8.445-3.0914-16.303-4.3562-23.06-11.85 30.455-21.7678 55.907-27.128 69.658.6307.557 1.1982 1.174 1.6983 1.839 1.2315 1.628 2.0836 3.584 2.4053 5.743.173 1.147.1921 2.329.0412 3.513l-.0052.036-.006.042-.0037.035c-.1607 1.184-.4846 2.32-.9498 3.384-.8687 2.002-2.1981 3.671-3.8096 4.927-.629.491-1.3044.925-2.0221 1.29 2.8695 24.161 9.5952 80.998 14.6393 125.146.9627 8.429 1.8623 16.395 2.6663 23.578 4.7192-14.561 10.6735-32.891 17.2409-53.005 4.9141-15.05 10.1677-31.099 15.4825-47.313-.2845-.317-.5551-.653-.8093-1.006-.7073-.974-1.2817-2.063-1.6929-3.242-.4112-1.18-.6404-2.395-.6947-3.607-.1008-2.123.3307-4.179 1.1896-6.014l.0162-.035c.8603-1.834 2.1602-3.473 3.8486-4.737.3177-.239.6489-.464.9919-.673zm47.886-145.832c.231-26.041.824-90.017 1.465-139.5198.101-7.7562.204-15.155.305-22.0016-5.716 14.8683-12.689 32.9653-20.305 52.6594-11.1857 28.928-23.7484 61.305-35.6759 91.997.7622.58 1.4842 1.206 2.1636 1.874l.0553.055c2.6157 2.582 4.6372 5.823 5.784 9.527.3318 1.067.5893 2.163.766 3.284l.1299.024c12.7549 2.412 28.3651 5.511 38.6971 7.581.473-.807 1.028-1.546 1.648-2.212.988-1.066 2.17-1.969 3.518-2.647.467-.238.95-.446 1.449-.621zm-3.614 21.874c-.313-.248-.612-.51-.899-.786-1.042-.998-1.925-2.195-2.587-3.562-.376-.771-.675-1.586-.889-2.435-10.503-.909-26.3527-2.306-39.2711-3.564l-.1315-.013c-1.0703 2.273-2.4911 4.326-4.1791 6.098l-.0547.058c-1.5798 1.653-3.4089 3.076-5.4383 4.201 1.0992 7.2 2.3963 15.774 3.7784 25.06 4.3061 28.941 9.4791 64.77 12.7071 87.258 15.6439-47.637 30.3302-92.199 36.9642-112.315zm51.399 93.518c-.38-.309-.752-.631-1.114-.967-3.793 2.055-7.988 4.32-12.427 6.704-21.591 11.595-48.917 26.05-63.4962 33.747.05.367.0829.736.0989 1.105.101 2.122-.3304 4.178-1.1893 6.013l-.0178.036c-.8601 1.833-2.1602 3.474-3.847 4.736-.9626.724-2.0367 1.314-3.1991 1.736-.4947.181-.9944.328-1.4992.441-4.9336 16.336-9.8233 32.501-14.4194 47.654-7.8651 25.933-14.8783 48.89-19.7229 64.711 3.348-2.493 7.0121-5.213 10.8751-8.068 16.6644-12.318 36.9826-27.176 51.3159-37.634-1.016-2.209-1.699-4.617-1.976-7.157-.241-2.162-.182-4.379.203-6.586.173-1.001.411-1.979.707-2.932l.014-.044.007-.023c.489-1.566 1.152-3.098 1.987-4.563 1.136-2 2.536-3.776 4.134-5.3 1.531-1.464 3.226-2.68 5.03-3.64l.05-.026.011-.005c2.4-1.275 5.057-2.129 7.879-2.462 1.293-.155 2.604-.198 3.92-.122 5.817-13.939 14.214-34.014 23.729-56.63 4.148-9.858 8.505-20.197 12.947-30.724zm-33.059 261.375c-.308-.301-.597-.617-.869-.946l-.028-.035c-.266-.322-.512-.656-.74-1l-.024-.034c-.785-1.184-1.381-2.524-1.739-3.99-.321-1.325-.425-2.655-.331-3.948l.005-.057.006-.082c.029-.338.071-.677.126-1.014-15.325-8.546-45.1155-25.19-68.5641-38.471-5.3651-3.039-10.3944-5.903-14.8421-8.445-.8435.745-1.7346 1.42-2.6647 2.024-.2337.152-.4712.301-.7124.446 8.7385 26.739 24.1539 73.994 36.3138 111.73 4.4675 13.865 8.4883 26.446 11.606 36.24.1498.003.3006.008.4498.016l.0643.002.103.006.138.007.1392.008.139.01.1028.008c2.2277-5.077 4.7747-10.854 7.5094-17.018 11.517-25.969 26.309-58.823 33.812-75.457zm111.603-51.848c-16.552-12.657-33.101-25.317-49.638-37.995-17.513-13.426-35.014-26.871-52.501-40.332l-2.051-1.578c-.637.426-1.291.817-1.958 1.172l-.05.026-.011.006c-2.4 1.274-5.057 2.128-7.879 2.462-2.13.255-4.31.205-6.481-.176-.982-.171-1.945-.408-2.881-.704l-.041-.013-.023-.008c-1.54-.491-3.043-1.156-4.482-2-1.174-.684-2.27-1.466-3.28-2.331-13.637 11.379-33.003 27.502-49.0113 40.69-4.1851 3.449-8.1432 6.694-11.704 9.605.4002 1.178.7028 2.381.907 3.594.3513 2.05.4303 4.169.2112 6.301l-.0091.093-.0014.01c-.0835.79-.2063 1.571-.3683 2.34l-.0212.1-.0042.019c4.3403 2.734 9.2346 5.825 14.4405 9.133 22.7629 14.454 51.4848 32.93 66.2458 42.442.223-.178.451-.348.685-.509l.034-.024c1.169-.804 2.491-1.417 3.935-1.786 1.306-.335 2.613-.445 3.886-.356l.054.004.082.007c.365.029.731.076 1.096.14.462.078.923.186 1.379.322l.043.012c.87.262 1.721.623 2.536 1.088.916.519 1.744 1.146 2.478 1.858.33.32.642.656.931 1.007l.029.035c.214.259.416.527.605.801 17.067-4.944 50.474-14.596 76.88-22.058 6.143-1.736 11.906-3.351 16.994-4.767.18-2.306.701-4.548 1.523-6.659zm-24.676-336.779c-1.428-.965-2.759-2.105-3.957-3.412-.354-.383-.695-.779-1.024-1.19-3.99 1.448-8.397 3.038-13.055 4.708-22.852 8.191-51.732 18.339-67.185 23.754-.008.647-.065 1.3-.175 1.952l-.005.034c-.147.873-.381 1.714-.695 2.515l-.012.034c-.218.554-.472 1.087-.76 1.597-.497.883-1.091 1.689-1.761 2.41-.989 1.066-2.171 1.969-3.519 2.647-.914.464-1.891.817-2.914 1.04l-.033.007c-.381.082-.767.147-1.157.193l-.053.007c-.261.029-.522.051-.782.063-6.426 21.414-21.106 70.297-36.476 121.264 14.395-8.904 39.45-24.373 59.552-36.617 4.308-2.622 8.388-5.095 12.083-7.327-1.798-9.492 2.459-19.53 11.22-24.546 4.465-2.556 9.414-3.415 14.121-2.782 14.462-34.194 28.102-66.356 36.587-86.351zm-4.789-33.884c-5.29-9.037-12.114-20.723-19.621-33.647-20.177-34.742-45.318-78.3882-59.547-103.1213-.31.1142-.621.2224-.938.3243-.447 11.3677-1.05 26.3628-1.759 42.992-2.109 49.468-5.071 113.388-6.286 139.404.518.211 1.016.457 1.493.734.866.5 1.658 1.1 2.362 1.779.225.215.443.439.653.673 15.057-6.475 43.216-18.555 65.602-27.993 4.564-1.925 8.887-3.736 12.807-5.371-.122-2.907.304-5.78 1.214-8.474.885-2.633 2.236-5.112 4.02-7.3zm56.11-75.781c-.344-.362-.675-.734-.993-1.115l-.023-.026-.02-.025c-.95-1.143-1.777-2.363-2.475-3.644-1.336-2.4372-2.253-5.1612-2.641-8.0853-.205-1.5286-.26-3.0872-.156-4.6515-7.761-3.3827-17.317-7.5601-27.742-12.1502-30.133-13.2673-67.53-29.9132-90.174-40.0124-.945 1.407-2.028 2.6859-3.224 3.8243 15.201 24.1279 42.009 66.7311 63.274 100.7931 7.91 12.673 15.045 24.163 20.556 33.061.442-.101.884-.189 1.325-.263 3.259-.554 6.528-.363 9.603.48 7.422-15.622 17.841-37.49 26.53-55.488 2.19-4.534 4.271-8.82 6.16-12.698zm-27.956 572.832c-5.579-4.243-12.186-9.281-19.315-14.746-26.285-20.146-59.695-46.023-75.578-58.341-1.129.752-2.401 1.328-3.782 1.682-1.121.288-2.245.41-3.345.382-6.498 17.072-19.342 50.746-29.616 77.24-2.439 6.291-4.736 12.174-6.761 17.336.642.572 1.248 1.178 1.817 1.814l.035.039c.988 1.108 1.878 2.322 2.648 3.633l.017.028.032.056c.081.14.161.28.24.422 8.728-1.572 19.588-3.512 31.484-5.609 33.803-5.954 75.934-13.204 101.093-17.518.038-1.957.321-3.864.82-5.687.066-.245.137-.489.211-.731zm-12.536-242.961c2.102-15.673 5.959-44.205 9.17-66.875.597-4.211 1.174-8.22 1.709-11.906-.243-.13-.482-.264-.717-.402l-.06-.034-.02-.012c-1.47-.868-2.859-1.915-4.135-3.138l-.069-.066c-.852-.823-1.631-1.702-2.332-2.626l-.054-.071-.083-.113-.034-.045-.05-.068-.034-.045-.021-.03-.028-.039-.033-.046-.027-.038-.022-.03-.033-.046-.049-.069-.031-.046-.081-.115-.051-.073c-.333-.488-.649-.988-.947-1.505-.406-.704-.778-1.432-1.112-2.184l-.036-.081-.026-.059-.03-.07-.026-.061-.035-.081c-.444-1.048-.807-2.121-1.089-3.209l-.013-.044c-.334-1.287-.56-2.613-.668-3.965l-.003-.03-.004-.058-.005-.056-.001-.032c-.077-1.035-.082-2.066-.022-3.089.085-1.457.306-2.887.652-4.273.287-1.163.666-2.309 1.138-3.431.363-.866.777-1.704 1.234-2.507l.035-.06.011-.02c.861-1.499 1.897-2.916 3.106-4.217l.067-.07c.813-.872 1.681-1.668 2.595-2.384l.069-.054.112-.087.045-.034.067-.051.044-.034.03-.023.038-.027.044-.034.039-.029.03-.021.044-.034.069-.05.046-.033.114-.083.072-.051c.48-.341.975-.666 1.485-.971.424-.254.855-.495 1.297-.723-.734-6.035-1.571-13.007-2.451-20.492-2.945-25.019-6.414-55.726-8.704-76.151-.943-.064-1.879-.187-2.799-.369-7.899 20.241-20.612 52.79-34.151 87.363 2.41 1.851 4.489 4.226 6.059 7.073 6.105 11.082 2.187 25.161-8.745 31.42-4.277 2.449-8.998 3.34-13.525 2.855-4.179 10.643-8.284 21.087-12.203 31.039-8.992 22.835-17.01 43.069-22.585 57.107.535.481 1.047.984 1.532 1.512 1.434 1.547 2.622 3.265 3.556 5.094l.027.05.005.011c.362.71.689 1.44.977 2.193 11.061-.404 25.61-.917 41.739-1.449 10.026-.329 20.66-.669 31.438-1.007.409-.785.894-1.52 1.445-2.19l.027-.034c1.383-1.681 3.115-2.911 5.002-3.663.638-.255 1.297-.458 1.975-.604zm164.429 217.844c-3.633-12.344-8.589-29.236-14.084-48.121-2.325-7.993-4.749-16.343-7.213-24.849-4.956.1-9.971-1.441-14.195-4.737-7.893-6.16-10.66-16.606-7.589-25.71-6.887-5.537-15.432-12.426-24.765-19.987-30.774-24.932-70.14-57.118-87.58-71.391-.638.4-1.306.739-1.995 1.013-1.887.757-3.975 1.054-6.107.778l-.043-.006c-1.138-.149-2.263-.459-3.341-.938-1.078-.477-2.067-1.102-2.947-1.847l-.033-.028c-.974-.826-1.792-1.775-2.45-2.81-10.761.705-21.382 1.393-31.393 2.033-16.109 1.029-30.642 1.922-41.692 2.588-.042.147-.085.294-.131.438l-.014.044-.007.023-.029.092c-.015.045-.028.089-.043.134l-.035.107c15.174 12.005 39.267 31.09 66.804 52.986 12.327 9.804 25.346 20.168 38.58 30.71 2.318-1.737 4.996-3.053 7.955-3.811 12.155-3.111 24.463 4.381 27.468 16.723 1.215 4.994.723 10.022-1.103 14.446 42.299 33.734 82.417 65.786 104.437 83.385l.061-.054.026-.022c.467-.414.954-.812 1.458-1.189zm-1.751 97.326c1.168-13.2 3.108-34.836 4.801-52.257.189-1.941.374-3.829.556-5.65l-.047-.022-.028-.014-.06-.029-.126-.062-.125-.062-.124-.063-.039-.02c-.702-.363-1.382-.76-2.038-1.191-.98-.641-1.897-1.352-2.75-2.122-.72-.65-1.402-1.35-2.043-2.103-.821-.957-1.567-1.99-2.228-3.093-.689-1.148-1.284-2.368-1.773-3.652-.196-.515-.374-1.033-.532-1.554-20.773 2.521-52.467 6.34-78.26 9.325-7.926.918-15.293 1.752-21.613 2.46-.061.255-.126.509-.194.759-.705 2.588-1.867 5.095-3.508 7.397-1.965 2.759-4.416 4.951-7.15 6.538l-.079.045c-2.736 1.583-5.838 2.61-9.169 2.919-2.78.26-5.488-.005-8.029-.711-2.543-.703-5.004-1.873-7.262-3.529-2.705-1.985-4.849-4.466-6.398-7.237l-.044-.08c-.451-.808-.853-1.647-1.205-2.514-24.945 5.46-66.732 14.577-100.309 21.763-3.6.771-7.105 1.519-10.483 2.237 14.173 2.15 31.081 4.727 49.39 7.543 73.422 11.286 169.366 26.304 202.072 31.43 1.805-3.383 5.058-5.778 8.797-6.451zm-5.165-88.969c-22.406-17.074-63.229-48.19-106.22-81.019-2.401 1.877-5.208 3.296-8.326 4.094-9.726 2.489-19.548-1.807-24.625-9.945-5.14 1.201-10.967 2.554-17.186 3.982-26.726 6.137-60.64 13.719-77.968 17.579-.024.187-.052.374-.084.559-.062.364-.14.726-.235 1.085 16.51 11.438 51.209 35.505 78.307 54.507 7.351 5.154 14.138 9.939 19.86 13.982.63-.458 1.28-.881 1.947-1.268l.078-.046c2.736-1.582 5.838-2.61 9.169-2.92 2.78-.258 5.489.005 8.03.712 2.543.703 5.004 1.873 7.262 3.53 2.705 1.983 4.849 4.465 6.397 7.235l.045.081c.381.684.728 1.389 1.04 2.116 6.339-.47 13.732-1.008 21.689-1.567 25.893-1.819 57.734-3.906 78.606-5.256.144-1.166.378-2.331.704-3.486.234-.832.511-1.644.828-2.429l.018-.044.054-.132.055-.13.038-.092.017-.039.028-.066.029-.064.025-.06.031-.071.023-.052.018-.039.017-.038.021-.047.02-.044.018-.039.018-.04.023-.051.018-.037.016-.034.027-.056.016-.038.014-.028.03-.062.06-.129zm-20.005-492.721c-.324-.508-.61-1.035-.855-1.579-.409-.899-.706-1.83-.893-2.77l-.012-.064c-.136-.703-.211-1.41-.228-2.114-.027-1.011.067-2.034.29-3.05.066-.305.144-.608.232-.909-12.984-9.614-37.061-27.476-56.079-41.772-3.783-2.843-7.364-5.547-10.616-8.011-.495.336-1.002.649-1.518.942-2.403 1.369-5.088 2.313-7.966 2.721-2.052.295-4.158.307-6.258.01l-.014-.002-.062-.009-.077-.011-.06-.009-.079-.012-.059-.009-.079-.013-.058-.009-.022-.004c-2.065 3.785-4.354 7.961-6.781 12.369-9.634 17.497-21.42 38.643-29.848 53.723.686.585 1.341 1.215 1.961 1.889 1.493 1.622 2.772 3.485 3.772 5.56l.004.011c1.003 2.074 1.67 4.244 2.018 6.439.609 3.809.247 7.638-.943 11.164-1.186 3.529-3.211 6.785-5.995 9.429-1.601 1.526-3.44 2.833-5.486 3.86l-.011.005c-.69.346-1.389.655-2.096.924 3.434 20.252 8.569 50.709 12.643 75.56 1.217 7.433 2.336 14.365 3.296 20.366.499.09.991.197 1.479.32.442.112.88.236 1.317.374 6.753-9.087 15.671-21.063 25.594-34.324 29.525-39.455 67.869-90.297 83.489-110.995zm-40.509 267.613c-12.037-13.978-36.03-41.88-54.806-63.963-4.576-5.381-8.837-10.416-12.546-14.81-.754.296-1.52.549-2.294.761l-.044.011c-.806.221-1.629.396-2.463.525-.717 3.654-1.503 7.626-2.336 11.797-4.49 22.45-10.315 50.644-13.529 66.127.523.323 1.018.682 1.484 1.076l.033.027c1.088.924 1.981 2.001 2.673 3.178 33.864-1.035 66.21-1.973 82.841-2.45l.025-.079.025-.075.026-.074.026-.073.026-.075.012-.032c.103-.29.218-.576.345-.861.151-.342.319-.679.502-1.01zm33.825 101.2c-9.93-34.422-19.059-66.209-23.722-82.463-.205-.011-.409-.027-.611-.049-.498-.049-.996-.132-1.49-.245l-.091-.022-.092-.023-.073-.018-.075-.019-.073-.019-.074-.021-.073-.02-.074-.021-.073-.021-.074-.022-.072-.022-.074-.024-.073-.023-.074-.023-.072-.025-.074-.025-.072-.024-.073-.027-.073-.026-.032-.011c-.284-.105-.566-.22-.844-.347-1.012-.458-1.971-1.06-2.847-1.8l-.064-.054-.059-.051-.058-.051-.058-.051-.058-.051-.057-.053-.01-.008c-.075-.068-.149-.137-.222-.208l-.057-.053-.055-.055-.057-.057-.049-.05-.054-.053-.054-.055-.052-.056-.054-.055-.052-.056-.052-.057-.061-.066-.045-.05c-.216-.24-.422-.488-.617-.743-.418-.545-.796-1.13-1.125-1.752-.182-.341-.346-.687-.493-1.041-16.116 1.098-47.033 3.195-79.779 5.367 19.021 14.15 57.844 43.064 88.253 65.916 9.598 7.212 18.352 13.825 25.394 19.159.188-.128.378-.253.57-.376zm64.076-283.199c-2.365-4.158-5.001-8.807-7.789-13.75-12.762-22.633-28.728-51.343-37.061-66.359-.606.111-1.211.174-1.818.192-.992.032-1.999-.059-2.997-.28-.241-.053-.48-.113-.717-.181-14.83 21.288-51.269 73.554-79.615 113.891-8.998 12.804-17.185 24.399-23.582 33.44 9.669-3.253 21.85-7.338 35.235-11.791 38.15-12.694 86.046-28.438 113.103-37.317l-.016-.141-.016-.141-.015-.142-.007-.062-.008-.08-.006-.063-.007-.078-.006-.062-.007-.079-.006-.063-.002-.033-.004-.046-.005-.062-.003-.038-.002-.041-.005-.063-.003-.041-.003-.038-.003-.063-.004-.045-.002-.033-.004-.063-.004-.078-.004-.064-.004-.077-.004-.064-.002-.079-.003-.063-.003-.077-.003-.064-.004-.141-.003-.141-.003-.142-.001-.078c-.011-.836.022-1.669.101-2.493.282-3.071 1.176-6.129 2.726-8.986.729-1.348 1.592-2.63 2.586-3.821zm-.211 29.654-.039-.049-.049-.059-.04-.05-.049-.06-.039-.05-.047-.061-.04-.048-.02-.028-.027-.035-.038-.048-.024-.031-.025-.032-.037-.049-.025-.034-.023-.029-.037-.05-.027-.036-.021-.026-.036-.051-.047-.062-.036-.051-.047-.064-.037-.05-.047-.065-.036-.049-.046-.065-.036-.051-.08-.116-.081-.116-.08-.117-.046-.068c-.284-.422-.554-.856-.812-1.301-26.694 9.971-73.958 27.596-111.697 41.515-14.076 5.191-26.828 9.858-36.676 13.451-.001.458-.014.915-.041 1.368-.085 1.459-.306 2.889-.652 4.275-.287 1.162-.665 2.309-1.137 3.431-.364.866-.777 1.704-1.235 2.507l-.035.06-.011.02c-.122.21-.246.419-.373.626 3.534 4.541 7.58 9.756 11.9 15.351 17.728 22.963 40.079 52.244 51.272 66.927.243-.082.492-.158.744-.225.664-.18 1.336-.301 2.008-.367.817-.078 1.631-.074 2.429.009.347.036.692.086 1.038.151 12.375-21.514 41.896-72.795 64.946-112.472 7.497-12.905 14.315-24.575 19.606-33.612zm-26.368-191.702c-3.207-2.7345-5.56-6.3007-6.87-10.2462-18.197 2.7078-44.471 6.5899-66.05 9.6652-5.904.841-11.454 1.6198-16.389 2.3036l-.01.0444-.017.0803-.012.0582-.019.0788-.012.061-.019.0774-.014.0607-.018.076-.014.0636-.034.138-.034.1393-.035.1378-.037.139-.037.1389-.038.1374-.039.1386-.009.0344c-.138.4843-.293.9662-.464 1.4444 3.133 2.6192 6.573 5.5062 10.193 8.5582 18.208 15.345 41.031 34.829 53.322 45.342.348-.209.705-.397 1.068-.57.887-.42 1.804-.724 2.73-.919l.062-.012c.693-.143 1.389-.223 2.082-.244.124-.004.248-.005.373-.005 4.477-12.692 12.015-33.976 18.196-51.0278.737-2.0322 1.455-4.0028 2.145-5.8932zm97.998 4.3812c-3.097-.6355-6.408-1.3201-9.863-2.0409-17.01-3.5509-37.463-7.941-52.589-11.2069-3.872 9.3831-13.155 14.8572-22.634 14.1719-.808 1.8407-1.653 3.7607-2.525 5.7367-7.307 16.538-16.549 37.047-22.096 49.315 18.311-9.417 57.16-29.369 87.655-44.841 8.131-4.125 15.667-7.925 22.052-11.1348zm-71.249 421.3848c-1.127-.415-2.237-.928-3.319-1.541-8.76-4.965-12.988-14.999-11.142-24.518-2.981-1.794-6.202-3.739-9.577-5.786-18.824-11.421-42.376-25.927-55.416-33.975-.067.056-.135.112-.205.168l-.025.019c5.214 16.078 15.408 47.534 26.405 81.614 5.182-.264 10.468 1.262 14.889 4.713 9.908 7.733 11.737 22.218 4.083 32.327-1.556 2.052-3.381 3.767-5.386 5.132 2.71 8.433 5.363 16.701 7.9 24.62 4.509 14.077 8.639 27.051 12.063 37.837.999-6.286 2.11-13.229 3.294-20.561 5.397-33.434 12.275-74.995 16.436-100.049zm42.59-168.37c-5.941-13.935-13.849-32.549-20.348-48.089-1.374-3.285-2.682-6.43-3.897-9.364l-.013.001-.076.005-.062.003-.078.004-.062.003-.077.003-.062.003-.139.005-.139.005-.139.003-.078.002c-.822.015-1.64-.015-2.452-.091-.959-.086-1.916-.236-2.865-.45-5.514 8.899-12.641 20.378-20.54 33.034-22.977 36.808-52.418 83.58-66.728 106.291 19.51-10.731 55.777-30.645 84.617-46.307 8.674-4.711 16.678-9.033 23.341-12.619-.076-.533-.133-1.068-.17-1.603-.211-2.953.137-5.999 1.12-8.986.971-2.95 2.47-5.572 4.357-7.792 1.291-1.524 2.794-2.896 4.49-4.061zm51.059-123.775c-1.052-19.205-3.167-58.253-4.669-88.961-.382-7.8-.718-15.061-1.002-21.32-.519-.158-1.031-.336-1.535-.532-2.052-.79-3.943-1.87-5.637-3.182l-.055-.043c-.9-.699-1.753-1.47-2.547-2.31-6.658 3.072-14.619 6.73-23.256 10.673-31.137 14.217-71.001 32.181-89.727 40.606.015.2.024.4.03.599.025 1.009-.069 2.034-.291 3.049-.124.57-.288 1.134-.49 1.689l-.012.031c-.242.652-.538 1.291-.893 1.907-.262.461-.551.899-.863 1.316 9.282 14.426 27.017 42.038 40.916 63.964 3.036 4.789 5.884 9.305 8.428 13.353.456-.109.915-.202 1.374-.281.216-.037.431-.071.648-.101l.08-.012.139-.018.14-.019.138-.017.14-.016.062-.007.077-.009.061-.007.078-.007.062-.006.078-.007.061-.007.033-.002.045-.004.061-.006.037-.003.041-.002.062-.006.039-.003.039-.003.061-.004.044-.004.034-.002.062-.004.077-.005.062-.004.076-.005.063-.003.076-.004.064-.002.076-.004.062-.004.138-.004.14-.004.139-.003.078-.002c.822-.015 1.64.015 2.452.091 3.019.271 6.024 1.166 8.828 2.728 1.86 1.031 3.588 2.336 5.124 3.899.425.432.83.88 1.217 1.341l.049.06.041.05.049.057.041.052.04.048.049.06.039.05.049.06.038.049.053.066c1.376-.481 2.793-.975 4.244-1.481 15.61-5.422 35.02-11.991 46.923-16.003.011-.515.055-1.034.132-1.555.181-1.24.54-2.424 1.051-3.525.445-.961.998-1.845 1.641-2.641l.033-.041c.383-.471.8-.915 1.254-1.33l.042-.04c.728-.662 1.542-1.246 2.432-1.729.336-.184.682-.351 1.035-.504zm79.001 188.231c-.015-.198-.029-.395-.04-.594l-.003-.056-.002-.025c-.013-.236-.022-.473-.028-.71-6.207-2.047-13.483-4.458-21.316-7.074-25.166-8.408-56.089-18.898-76.211-25.744-.757 1.383-1.644 2.662-2.636 3.831-1.883 2.223-4.214 4.119-6.944 5.53-2.762 1.43-5.676 2.23-8.583 2.455-2.907.229-5.902-.11-8.835-1.095-2.899-.973-5.471-2.485-7.647-4.391-.372-.326-.735-.664-1.088-1.015-6.771 3.362-14.917 7.396-23.771 11.75-31.435 15.464-71.715 35.037-90.475 44.14.006.047.011.094.014.142.075.83.066 1.656-.019 2.468-.012.124-.027.247-.043.369 13.592 7.045 38.119 19.786 57.575 30.061 3.488 1.842 6.81 3.605 9.88 5.239 7.034-6.578 17.683-8.182 26.444-3.217 3.034 1.72 5.523 4.047 7.405 6.749 26.144-12.38 72.773-34.429 109.984-51.865 13.974-6.547 26.62-12.436 36.339-16.948zm-82.144-166.88-.001-.001c-.41-.344-.801-.717-1.167-1.117-11.495 5.105-30.257 13.409-45.438 19.982-1.411.611-2.791 1.207-4.131 1.784l.003.085.005.078.002.064.003.078.002.063.005.14.004.142.002.141.001.08c.011.835-.022 1.667-.101 2.493-.281 3.069-1.176 6.128-2.726 8.986-1.025 1.895-2.317 3.658-3.862 5.226-.427.434-.868.848-1.323 1.243l-.059.05-.05.043-.056.049-.051.043-.048.04-.021.017c1.057 2.997 2.188 6.214 3.362 9.579 5.554 15.915 12.12 35.068 17.017 49.417.582-.091 1.165-.159 1.747-.204.549-.043 1.099-.067 1.653-.069 1.919-5.473 4.129-11.748 6.512-18.46 9.779-27.557 22.385-62.476 28.716-79.972zm91.686 288.521c.724-18.368 2.186-54.75 3.496-83.419.315-6.864.623-13.284.9-18.906-.597-.249-1.183-.524-1.752-.821-1.359-.707-2.625-1.543-3.789-2.489l-.08-.066c-.769-.629-1.501-1.314-2.192-2.052l-.006-.008-.075-.081c-.059-.062-.116-.125-.173-.189-9.824 4.272-22.617 9.818-36.782 15.918-37.732 16.249-85.158 36.473-111.748 47.796 1.109 5.289.399 11.003-2.413 16.102-3.911 7.087-10.949 11.286-18.366 11.8-3.024 25.221-8.066 67.045-12.251 100.652-1.456 11.686-2.812 22.375-3.922 31.024l.037.018c.702.362 1.382.76 2.038 1.191.815.533 1.587 1.115 2.315 1.739 10.968-6.532 25.987-15.458 42.787-25.391 47.611-28.147 109.479-64.436 133.434-78.478-.101-.566-.165-1.145-.187-1.732-.053-1.264.082-2.501.384-3.682.315-1.24.808-2.403 1.448-3.459.81-1.344 1.876-2.55 3.178-3.534.953-.724 2.014-1.314 3.165-1.741l.049-.019c.167-.062.336-.119.505-.173zm-69.846 199.982c-22.243-9.46-57.898-24.658-86.64-37.048-9.88-4.259-18.937-8.191-26.359-11.424-.551.602-1.136 1.178-1.756 1.726-.945.838-1.966 1.601-3.055 2.278-1.131.707-2.335 1.317-3.601 1.82-1.198.479-2.418.845-3.649 1.106l-.065.015-.136.028-.137.027-.137.026-.051.01c-.298 1.804-.611 3.677-.934 5.6-2.926 17.417-6.726 39.043-9.029 52.054.966.556 1.847 1.239 2.622 2.024l.023.023c.833.844 1.549 1.812 2.12 2.88 21.12-3.482 67.365-11.082 103.504-16.847 10.156-1.619 19.51-3.088 27.28-4.298zm68.662-94.124c-.697-.765-1.335-1.574-1.916-2.418-.883-1.28-1.643-2.661-2.259-4.127-29.798 6.918-84.659 19.629-128.245 29.574-16.333 3.727-31.081 7.056-42.322 9.58 7.139 3.381 15.715 7.455 25.014 11.899 28.396 13.573 63.527 30.544 85.266 41.065 3.503-5.31 9.138-9.138 15.845-10.073 3.396-.474 6.719-.156 9.785.812 8.529-16.901 20.734-41.031 30.864-60.82 2.867-5.6 5.57-10.85 7.968-15.492zm6.642-36.331c-.064-.569-.127-1.146-.191-1.729-1.588-14.379-3.394-32.105-4.537-43.505-.058-.014-.116-.028-.176-.044-1.217-.314-2.359-.81-3.397-1.457-.437-.271-.859-.569-1.263-.897-23.467 14.872-84.097 53.269-130.945 82.715-8.808 5.535-17.127 10.75-24.614 15.437 7.214-1.438 15.078-2.998 23.35-4.629 43.846-8.648 99.112-19.353 129.135-25.155-.001-1.373.119-2.725.35-4.046.427-2.436 1.249-4.844 2.491-7.134 1.738-3.197 4.111-5.815 6.87-7.78.924-.661 1.902-1.256 2.927-1.776zm-9.29-208.513c-4.884-9.074-11.157-20.759-18.047-33.668-21.293-39.893-48.535-91.426-60.009-113.152l-.03.005-.076.012-.01.001c-.394.059-.788.099-1.181.12-5.295 17.842-15.886 53.438-24.38 81.427-2.069 6.816-4.016 13.179-5.721 18.726.412.314.814.641 1.202.981 2.178 1.902 4.031 4.263 5.408 7.03 1.392 2.802 2.167 5.76 2.373 8.714.088 1.225.079 2.464-.03 3.709 20.462 5.721 51.896 14.535 77.402 21.815 7.941 2.266 15.304 4.388 21.581 6.205.238-.335.482-.662.735-.983l.065-.081c.231-.292.471-.579.718-.861z" fill="#fff" fill-opacity=".1" fill-rule="evenodd"/></svg>