<svg fill="none" height="149" viewBox="0 0 235 149" width="235" xmlns="http://www.w3.org/2000/svg" xmlns:xlink="http://www.w3.org/1999/xlink"><linearGradient id="a"><stop offset="0" stop-color="#fcc600"/><stop offset=".3393" stop-color="#ef8e33"/><stop offset=".6809" stop-color="#e86432"/><stop offset="1" stop-color="#e95364"/></linearGradient><linearGradient id="b" gradientUnits="userSpaceOnUse" x1="30.9438" x2="30.9438" xlink:href="#a" y1=".001078" y2="61.3693"/><linearGradient id="c" gradientUnits="userSpaceOnUse" x1="117.448" x2="117.448" xlink:href="#a" y1=".002055" y2="61.3702"/><linearGradient id="d" gradientUnits="userSpaceOnUse" x1="203.948" x2="203.948" xlink:href="#a" y1=".002055" y2="61.3702"/><g fill="#6f6f6e"><path d="m20.2038 83.5726v4.0133h10.1486v7.7038h-10.1486v4.613h11.5325v8.1653h-21.77341v-32.6604h21.77341v8.165z"/><path d="m63.3661 100.318h9.8719v7.75h-20.1128v-32.6604h10.2409z"/><path d="m114.933 103.132h-10.887l-1.614 4.936h-10.7484l11.9474-32.6604h11.81l11.901 32.6604h-10.794zm-2.491-7.7039-2.952-9.0877-2.952 9.0877z"/><path d="m159.976 108.391c-3.905 0-7.134-.908-9.687-2.722-2.522-1.845-3.89-4.536-4.105-8.0728h10.886c.154 1.8759.984 2.8138 2.491 2.8138.554 0 1.015-.123 1.384-.369.4-.2767.6-.6919.6-1.2454 0-.7689-.415-1.3839-1.246-1.8452-.83-.4921-2.122-1.0457-3.875-1.6607-2.091-.7381-3.828-1.4608-5.212-2.1681-1.353-.7074-2.522-1.7376-3.506-3.0908-.984-1.3531-1.461-3.0907-1.43-5.2127 0-2.122.538-3.921 1.614-5.3972 1.107-1.5069 2.599-2.6448 4.475-3.4136 1.907-.7689 4.044-1.1533 6.412-1.1533 3.998 0 7.166.9226 9.503 2.7678 2.368 1.8452 3.613 4.4439 3.736 7.796h-11.025c-.03-.9226-.261-1.5838-.692-1.9836-.43-.3998-.953-.5997-1.568-.5997-.431 0-.784.1538-1.061.4613-.277.2768-.415.6766-.415 1.1994 0 .7381.4 1.3532 1.199 1.8452.831.4613 2.138 1.0303 3.921 1.7068 2.061.7689 3.752 1.507 5.075 2.2143 1.353.7073 2.521 1.6914 3.505 2.9523.985 1.2609 1.477 2.8447 1.477 4.7514 0 1.999-.492 3.7978-1.477 5.3968-.984 1.569-2.414 2.799-4.29 3.691s-4.105 1.338-6.689 1.338z"/><path d="m223.774 75.4076v32.6604h-10.24v-12.7322h-9.734v12.7322h-10.241v-32.6604h10.241v11.7632h9.734v-11.7632z"/><path d="m30.2619 118.508v3.237h-8.227v27.256h-3.9403v-27.256h-8.27038v-3.237z"/><path d="m59.2304 149.001-7.1878-12.469h-4.763v12.469h-3.9403v-30.493h9.7425c2.2805 0 4.2001.393 5.7589 1.181 1.5877.787 2.7713 1.852 3.5507 3.194.7794 1.341 1.1691 2.872 1.1691 4.593 0 2.1-.6062 3.952-1.8186 5.556-1.1836 1.604-2.9733 2.669-5.3693 3.194l7.5776 12.775zm-11.9508-15.662h5.8022c2.1362 0 3.7383-.525 4.8063-1.575 1.0681-1.08 1.6021-2.509 1.6021-4.288 0-1.808-.534-3.208-1.6021-4.2-1.0392-.991-2.6413-1.487-4.8063-1.487h-5.8022z"/><path d="m95.7498 142.22h-13.1633l-2.4248 6.781h-4.1568l10.9116-30.318h4.5466l10.8679 30.318h-4.1564zm-1.1258-3.238-5.4558-15.399-5.4559 15.399z"/><path d="m119.254 118.508v30.493h-3.94v-30.493z"/><path d="m157.926 149.001h-3.941l-15.848-24.281v24.281h-3.94v-30.537h3.94l15.848 24.237v-24.237h3.941z"/><path d="m176.81 121.745v10.194h10.998v3.281h-10.998v10.5h12.297v3.281h-16.237v-30.537h16.237v3.281z"/><path d="m219.188 149.001-7.188-12.469h-4.763v12.469h-3.941v-30.493h9.743c2.28 0 4.2.393 5.759 1.181 1.588.787 2.771 1.852 3.55 3.194.78 1.341 1.17 2.872 1.17 4.593 0 2.1-.607 3.952-1.819 5.556-1.184 1.604-2.973 2.669-5.369 3.194l7.577 12.775zm-11.951-15.662h5.802c2.136 0 3.738-.525 4.806-1.575 1.068-1.08 1.602-2.509 1.602-4.288 0-1.808-.534-3.208-1.602-4.2-1.039-.991-2.641-1.487-4.806-1.487h-5.802z"/></g><circle cx="30.9448" cy="30.6851" fill="url(#b)" r="30.6851"/><g fill="#fff7fb"><path d="m49.9356 22.8054v23.3083h-10.7113c-2.9434 0-4.4913 1.9958-4.649 2.1062h-5.2247c-.16-.1119-1.6858-2.1062-4.6491-2.1062h-10.7113v-25.4145h2.1062v23.3083h8.6143c3.2913 0 5.1234 1.8571 5.5799 2.1062h3.3446c.4563-.2491 2.2889-2.1062 5.58-2.1062h8.6142v-21.2021z"/><path d="m28.7993 42.7427c-1.2792-.5533-2.6629-.8404-4.0881-.8404h-6.5081v-25.4145h2.1062v21.2021h3.1593c2.87 0 5.2177 2.2473 5.3307 5.0528z"/><path d="m39.2146 18.5923c-2.2307 0-4.3793.5844-6.2732 1.7018.0489.4784.074.9649.074 1.4574v22.2111c.141-.1023.3023-.2156.486-.3363 3.2517-2.1686 5.4922-1.7257 12.2213-1.7257v-23.3083z"/><path d="m30.9129 42.9548c0-4.0647-3.3384-7.3716-7.4418-7.3716h-1.0531v-23.3083c5.2648 0 8.4949 4.2517 8.4949 9.4778z"/></g><circle cx="117.449" cy="30.686" fill="url(#c)" r="30.6851"/><circle cx="117.447" cy="30.6858" fill="#fff7fb" r="27.4704"/><circle cx="100.787" cy="30.3926" fill="#a23b74" r="4.67582"/><circle cx="117.736" cy="30.3926" fill="#fbc11d" r="4.67582"/><circle cx="134.688" cy="30.3926" fill="#fbc11d" r="4.67582"/><circle cx="203.949" cy="30.686" fill="url(#d)" r="30.6851"/><path d="m201.474 46.005c-.648.7357-1.774.7969-2.498.1357l-14.161-12.9298c-.727-.6635-.765-1.7949-.085-2.5063l3.861-4.0404c.662-.693 1.758-.7258 2.46-.0736l7.261 6.7414c.727.6744 1.867.6132 2.517-.1352l15.251-17.5603c.636-.7323 1.746-.8092 2.477-.1714l4.227 3.6884c.732.6389.805 1.7513.163 2.4804z" fill="#fff"/></svg>