<svg fill="none" height="60" viewBox="0 0 177 60" width="177" xmlns="http://www.w3.org/2000/svg" xmlns:xlink="http://www.w3.org/1999/xlink"><mask id="a" height="53" maskUnits="userSpaceOnUse" width="41" x="0" y="6"><path d="m11.0791 9.98224c0 2.19026 1.7921 3.98226 3.9823 3.98226.1991 0 .3982 0 .5973-.0498l2.7378 8.96-4.5796-1.7422c.0498-.2489.0996-.448.0996-.6969 0-1.792-1.4436-3.2356-3.2356-3.2356-1.79199 0-3.23555 1.4436-3.23555 3.2356s1.44356 3.2356 3.23555 3.2356c.8462 0 1.6925-.3485 2.2898-.9956l6.2222 3.0365 1.7423 5.7244-15.68008-4.7289c.19911-.4977.19911-.9955.09955-1.4933-.14933-.6969-.54755-1.2942-1.19467-1.6925-1.24445-.7964-2.9369-.448-3.733346.7965-.796448 1.2444-.4479989 2.9369.796446 3.7333.59734.3983 1.34401.4978 2.0409.3485.39822-.0996.79645-.2987 1.14489-.5476l16.52631 6.6205-.1494 6.72-11.39911-4.3307c.24889-1.4933-.59734-2.9866-2.0409-3.5342-.79645-.2987-1.69245-.2987-2.4889.0498-.79644.3484-1.39378.9955-1.69245 1.792-.29867.7964-.29866 1.6924.04978 2.4889.34845.7964.99556 1.3938 1.79201 1.6924.34845.1494.74667.1992 1.14489.1992 1.09512 0 2.09068-.5476 2.68801-1.4436l11.79737 6.2222-.2987 12.8428c0 .9457.7965 1.7422 1.7423 1.7422s1.7422-.7965 1.7422-1.7422l-.3484-14.6846 10.3538-6.4711c.6471.9458 1.6924 1.4934 2.8373 1.4934.5476 0 1.0951-.1494 1.5929-.3983.7965-.448 1.3938-1.1449 1.6925-2.0409.2489-.896.1991-1.8418-.2489-2.6382s-1.1449-1.4436-2.0409-1.6925c-.896-.2488-1.8418-.1991-2.6383.2489-1.344.6969-2.0408 2.1903-1.792 3.6338l-9.856 4.48-.0996-4.928 11.3992-11.4489v-.0498c.6969.2987 1.4436.3485 2.1902.1494.9458-.1992 1.7423-.7965 2.2898-1.6427.4978-.8462.6969-1.792.448-2.7378-.1991-.9458-.7964-1.7422-1.6427-2.2898-.8462-.4978-1.792-.6969-2.7377-.448-.9458.1991-1.7423.7964-2.2898 1.6427-.4978.8462-.6969 1.792-.448 2.7378.1493.6969.5475 1.344 1.0951 1.8418v.0497l-10.3041 8.5121-1.9413-5.3263c.0498-.0498.0498-.0995.0498-.1493v-.0498l3.3351-5.4756c.3484.0996.7467.1494 1.0951.1494 2.1902 0 3.9823-1.792 3.9823-3.9823 0-2.1902-1.7921-3.9822-3.9823-3.9822s-3.9822 1.792-3.9822 3.9822c0 1.0951.448 2.1405 1.2444 2.8871l-2.8373 3.7832-3.2356-8.8605c1.2445-.6969 2.0409-2.0409 2.0409-3.48446 0-2.19023-1.792-3.98224-3.9822-3.98224s-3.9823 1.79201-3.9823 3.98224z" fill="#fff"/></mask><g mask="url(#a)"><path d="m40.3493 6h-40.618831v52.914h40.618831z" fill="#fff"/></g><g fill="#fff"><path d="m53.6404 34.622c-.2987-.2986-.4978-.7466-.4978-1.2942v-13.3903c0-.5475.1493-.9955.4978-1.2942.2986-.2987.7466-.448 1.344-.448h5.0275c1.8916 0 3.5343.3485 4.9281.9956 1.3937.6471 2.4391 1.6426 3.136 2.8871.7466 1.2444 1.0951 2.7876 1.0951 4.5298s-.3485 3.2853-1.0951 4.5298c-.6969 1.2942-1.792 2.24-3.136 2.9369-1.3938.6471-3.0365.9955-4.9778.9955h-5.0276c-.5476.0498-.9956-.0995-1.2942-.448zm6.0729-2.5386c3.7333 0 5.6249-1.792 5.6249-5.4258s-1.8916-5.4258-5.6249-5.4258h-2.688v10.8516z"/><path d="m77.1354 34.7215c-.3484-.3484-.5475-.7964-.5475-1.344v-13.44c0-.5476.1991-.9956.5475-1.344.3485-.3485.8463-.4978 1.4436-.4978s1.0951.1493 1.4436.4978c.3484.3484.5475.7964.5475 1.344v13.44c0 .5974-.1493 1.0454-.5475 1.344-.3485.3485-.8463.4978-1.4436.4978-.5973.0498-1.0951-.1493-1.4436-.4978z"/><path d="m103.118 26.1602c.298.2489.398.5973.398.9956v4.6791c0 .6471-.05 1.1449-.149 1.4933-.1.3485-.299.6471-.548.8462-.249.1992-.647.3983-1.195.5476-.647.1991-1.393.3485-2.2395.448-.8462.0996-1.6427.1493-2.3894.1493-1.8417 0-3.4844-.3484-4.8284-1.0453s-2.3894-1.6924-3.136-2.9867c-.7467-1.2942-1.0952-2.8373-1.0952-4.6293 0-1.7423.3485-3.2854 1.0952-4.5796.6969-1.2942 1.7422-2.2898 3.0862-2.9867s2.9369-1.0453 4.7289-1.0453c2.2898 0 4.2312.5973 5.7242 1.7422.249.1991.398.3982.548.5974.099.1991.149.448.149.6968 0 .3983-.099.7467-.348 1.0454s-.548.448-.847.448c-.199 0-.398-.0498-.597-.0996-.149-.0498-.398-.1493-.647-.2986-.697-.3983-1.344-.6969-1.9413-.896-.5973-.1992-1.2444-.2489-1.9413-.2489-3.3849 0-5.0774 1.8915-5.0774 5.6747 0 1.9413.448 3.3849 1.2942 4.3804.896.9458 2.1903 1.4436 3.9823 1.4436.9458 0 1.9413-.0996 2.8875-.3485v-3.7333h-2.2902c-.4978 0-.8462-.0996-1.1449-.3485-.2489-.1991-.3982-.5475-.3982-.9457 0-.3983.1493-.7467.3982-.9458.2489-.2489.6471-.3485 1.1449-.3485h4.2812c.497-.0995.846.0498 1.095.2987z"/><path d="m53.6903 9.13579c-.1493-.14933-.2489-.34845-.2489-.59734v-7.616026c0-.24889.0498-.448002.1991-.597336.1494-.149334.3485-.199111.5974-.199111h3.1857c.9956 0 1.7423.24889 2.2898.74667.5476.497783.7965 1.194673.7965 2.040893 0 .84623-.2489 1.5929-.7965 2.0409-.5475.49778-1.2942.74667-2.2898.74667h-2.3395v2.78757c0 .24889-.0996.448-.2489.59733-.1493.14934-.3485.24889-.5973.24889-.1992 0-.3983-.04978-.5476-.19911zm3.584-4.67913c1.1449 0 1.7422-.49778 1.7422-1.49334s-.5973-1.49334-1.7422-1.49334h-2.0907v2.98668z"/><path d="m62.8498 8.98643c-.4978-.24889-.8463-.64711-1.1449-1.14489-.2489-.49778-.3983-1.09511-.3983-1.74223 0-.64711.1494-1.24445.3983-1.74223s.6471-.896 1.1449-1.14489c.4977-.24889 1.0453-.39823 1.6924-.39823s1.1947.14934 1.6925.39823c.4977.24889.8462.64711 1.1449 1.14489.2488.49778.3982 1.09512.3982 1.74223 0 .64712-.1494 1.24445-.3982 1.74223-.2489.49778-.6472.896-1.1449 1.14489-.4978.24889-1.0454.39823-1.6925.39823s-1.2444-.14934-1.6924-.39823zm2.8871-1.39378c.2986-.34844.3982-.84623.3982-1.54312 0-.64711-.1493-1.19467-.3982-1.54311-.2987-.34845-.6969-.54756-1.1947-.54756s-.896.19911-1.1947.54756c-.2986.34844-.3982.84622-.3982 1.54311s.1494 1.19468.3982 1.54312c.2987.34845.6969.49778 1.1947.49778.4978.04978.896-.14933 1.1947-.49778z"/><path d="m77.8329 2.91352c.0995-.09955.2489-.09956.3982-.09956.1991 0 .3982.04978.5476.19912.1493.14933.2488.29867.2488.49778 0 .09955 0 .19911-.0497.29866l-2.1405 5.02758c-.0498.14933-.1991.29867-.2987.39822-.1493.09956-.2986.14934-.4977.14934-.1494 0-.2987-.04978-.448-.14934-.1494-.09955-.2489-.19911-.2987-.39822l-1.5431-3.73335-1.4934 3.73335c-.0497.14933-.1991.29867-.2986.39822-.1494.09956-.2987.14934-.4978.14934-.1493 0-.2987-.04978-.448-.14934-.1493-.09955-.2489-.19911-.3485-.39822l-2.1404-5.02758c-.0498-.09955-.0498-.19911-.0498-.29866 0-.19911.0996-.34845.2489-.49778.1493-.14934.3484-.19912.5476-.19912.1493 0 .2986.04978.3982.09956.0995.04978.1991.19911.2489.34845l1.5431 3.93246 1.5929-3.93246c.0498-.14934.1493-.29867.2987-.34845.1493-.09955.2488-.09956.448-.09956.1493 0 .2986.04978.448.09956.1493.09956.2488.19911.2986.34845l1.5929 3.93246 1.4934-3.93246c0-.14934.0995-.24889.1991-.34845z"/><path d="m85.3495 7.69221c.0995.09955.1493.24889.1493.448 0 .24889-.1493.49778-.4978.69689-.2986.14933-.6471.29867-.9955.39822-.3485.09956-.7467.14934-1.0454.14934-.9955 0-1.8418-.29867-2.4391-.89601-.5973-.59733-.896-1.39378-.896-2.38934 0-.64711.1493-1.24445.3982-1.74223s.6471-.896 1.0951-1.14489c.448-.29867.9956-.39823 1.5929-.39823.5476 0 1.0454.14934 1.4934.39823s.7466.59734.9955 1.04534.3485.99556.3485 1.64267c0 .34845-.1493.54756-.4978.54756h-3.8329c.0498.59733.1991 1.04533.4978 1.29422.2986.24889.6969.39823 1.2444.39823.2987 0 .4978-.04978.7467-.09956s.448-.14933.6969-.29867c.2489-.14933.448-.19911.5475-.19911.1992 0 .3485.04978.3983.14934zm-3.6338-3.33513c-.2489.29867-.3982.69689-.4978 1.19467h2.9369c0-.54755-.1493-.94578-.3982-1.19467s-.5974-.39822-.9956-.39822c-.448-.04978-.7964.09956-1.0453.39822z"/><path d="m90.9734 2.96341c.1493.09956.1991.29867.1991.49778 0 .24889-.0498.39822-.1493.49778-.0996.09956-.2987.19911-.5974.19911l-.3982.04978c-.4978.04978-.896.24889-1.1449.49778-.2489.29867-.3484.64711-.3484 1.09512v2.73778c0 .24889-.0996.44801-.2489.59734-.1494.14933-.3485.19911-.5974.19911s-.448-.04978-.5973-.19911-.2489-.34845-.2489-.59734v-4.97779c0-.24889.0996-.448.2489-.54756.1493-.14933.3484-.19911.5475-.19911.2489 0 .3983.04978.5476.19911s.1991.29867.1991.54756v.49778c.1494-.39823.3982-.69689.7467-.89601.3484-.19911.6969-.34844 1.0951-.34844h.1991c.1991-.04978.3982 0 .5476.14933z"/><path d="m97.0956 7.69221c.0995.09955.1493.24889.1493.448 0 .24889-.1493.49778-.4978.69689-.2986.14933-.6471.29867-.9955.39822-.3485.09956-.7467.14934-1.0454.14934-.9955 0-1.8418-.29867-2.4391-.89601-.5973-.59733-.896-1.39378-.896-2.38934 0-.64711.1493-1.24445.3982-1.74223s.6471-.896 1.0951-1.14489c.448-.29867.9956-.39823 1.5929-.39823.5476 0 1.0454.14934 1.4934.39823s.7466.59734.9955 1.04534.3485.99556.3485 1.64267c0 .34845-.1494.54756-.4978.54756h-3.8329c.0498.59733.1991 1.04533.4978 1.29422.2986.24889.6969.39823 1.2444.39823.2987 0 .4978-.04978.7467-.09956s.448-.14933.6969-.29867c.2489-.14933.448-.19911.5475-.19911.1992 0 .2987.04978.3983.14934zm-3.6338-3.33513c-.2489.29867-.3982.69689-.4978 1.19467h2.9369c0-.54755-.1493-.94578-.3982-1.19467s-.5974-.39822-.9956-.39822c-.448-.04978-.7964.09956-1.0453.39822z"/><path d="m104.513.275257c.15.149334.249.298667.249.547557v7.765366c0 .24889-.05.39822-.199.54756-.149.14933-.348.19911-.597.19911s-.448-.04978-.598-.19911c-.149-.14934-.199-.34845-.199-.54756v-.34845c-.199.34845-.448.64712-.846.84623s-.747.29867-1.244.29867c-.548 0-1.046-.14934-1.444-.39823-.448-.29867-.7466-.64711-.9955-1.19467-.2489-.49778-.3485-1.09512-.3485-1.74223s.0996-1.24445.3485-1.74223.5475-.896.9955-1.14489.896-.39822 1.444-.39822c.448 0 .846.09955 1.194.29866.349.19911.647.44801.797.79645v-3.086233c0-.199112.049-.398225.199-.547559.149-.149334.348-.1991108.597-.1991108s.498.0995558.647.2488898zm-1.792 7.317363c.299-.34845.398-.84623.398-1.49334s-.149-1.14489-.398-1.49334c-.298-.34844-.697-.54756-1.194-.54756-.498 0-.896.14934-1.195.49778-.299.34845-.4481.84623-.4481 1.49334s.1491 1.1449.4481 1.54312.697.54756 1.195.54756c.497 0 .896-.19911 1.194-.54756z"/><path d="m115.018 3.16241c.448.24889.746.64711.995 1.14489s.349 1.04534.349 1.74223-.1 1.24445-.349 1.74223-.547.896-.995 1.19467-.896.39822-1.444.39822c-.448 0-.846-.09955-1.244-.29867-.398-.19911-.647-.49778-.846-.84622v.34845c0 .24889-.05.39822-.2.54755-.149.14934-.348.19911-.597.19911s-.448-.04977-.597-.19911c-.15-.14933-.199-.34844-.199-.54755v-7.765369c0-.248889.099-.398223.249-.547556.149-.149334.348-.1991131.597-.1991131s.448.0497791.597.1991131c.15.149333.199.298667.199.547556v3.036459c.199-.34845.448-.59734.797-.79645.348-.19911.746-.29867 1.194-.29867.598 0 1.096.14934 1.494.39823zm-.697 4.43024c.299-.34845.448-.89601.448-1.54312 0-.64712-.149-1.1449-.398-1.49334-.249-.34845-.697-.49778-1.195-.49778s-.896.19911-1.195.54756c-.298.34844-.398.84622-.398 1.49334 0 .64711.149 1.14489.398 1.49334.299.34844.697.54755 1.195.54755.448 0 .846-.19911 1.145-.54755z"/><path d="m122.284 2.91349c.1-.04977.249-.09955.398-.09955.2 0 .399.04978.548.19911s.249.29867.249.49778c0 .09956-.05.19911-.1.29867l-3.534 7.4169c-.149.2987-.398.448-.697.448-.199 0-.398-.0498-.547-.1991-.15-.1493-.249-.2987-.249-.4978 0-.0995.05-.1991.099-.3484l.896-1.84181-2.389-5.02757c-.05-.09956-.05-.19911-.05-.29867 0-.19911.1-.34845.249-.49778s.349-.19911.597-.19911c.15 0 .299.04978.399.09956.099.04977.199.19911.298.34844l1.792 4.03202 1.792-3.98224c.05-.14933.15-.24889.249-.34845z"/><path d="m111.829 34.7215c-.349-.3484-.548-.7964-.548-1.344v-13.44c0-.5476.199-.9956.548-1.344.348-.3485.846-.4978 1.443-.4978.598 0 1.095.1493 1.444.4978.348.3484.547.7964.547 1.344v13.44c0 .5974-.199 1.0454-.547 1.344-.349.3485-.846.4978-1.444.4978-.597.0498-1.095-.1493-1.443-.4978z"/><path d="m127.759 34.7216c-.348-.3484-.547-.7964-.547-1.344v-12.1458h-4.032c-1.245 0-1.842-.4978-1.842-1.5431 0-.9956.597-1.4934 1.842-1.4934h11.946c1.245 0 1.842.4978 1.842 1.4934 0 1.0453-.597 1.5431-1.842 1.5431h-4.032v12.1458c0 .5476-.199.9956-.547 1.344-.349.3484-.846.4978-1.444.4978-.498 0-.995-.1494-1.344-.4978z"/><path d="m157.427 33.5771c0 .448-.199.8462-.548 1.1449-.348.2987-.796.448-1.294.448-.299 0-.597-.0995-.896-.2489-.299-.1493-.498-.3982-.647-.7466l-1.294-2.8374h-8.462l-1.295 2.8374c-.149.3484-.348.5973-.647.7466-.249.1494-.597.2489-.896.2489-.498 0-.896-.1493-1.294-.448s-.597-.6969-.597-1.1449c0-.1991.049-.4978.199-.7467l6.72-13.5893c.199-.3983.448-.6969.846-.896.348-.1992.747-.2987 1.195-.2987s.846.0995 1.194.2987c.349.1991.647.4977.847.8462l6.72 13.5894c.099.3484.149.5973.149.7964zm-11.797-5.0276h5.774l-2.887-6.2222z"/><path d="m164.545 34.6225c-.299-.2987-.498-.7467-.498-1.2943v-13.44c0-.5476.149-.9956.547-1.344.349-.3485.797-.4978 1.444-.4978.597 0 1.045.1493 1.444.4978.348.3484.547.7964.547 1.344v12.1458h6.272c1.195 0 1.842.4978 1.842 1.5431 0 .9956-.597 1.4934-1.842 1.4934h-8.462c-.548.0497-.996-.0996-1.294-.448z"/><path d="m53.4901 58.6153c-.1991-.1991-.2987-.4978-.2987-.8462v-13.3903c0-.3484.0996-.5973.2987-.7964.1991-.1992.4978-.2987.8462-.2987h8.1636c.7467 0 1.0951.2987 1.0951.9458 0 .5973-.3484.9458-1.0951.9458h-7.0187v4.8782h6.5707c.7467 0 1.0951.2987 1.0951.9458 0 .5973-.3484.9458-1.0951.9458h-6.5707v5.9235c0 .3485-.0996.6472-.2987.8463s-.4978.2986-.8462.2986c-.3982-.0995-.6471-.1991-.8462-.3982z"/><path d="m88.3354 57.9183c0 .2987-.0995.4978-.3484.6969s-.4978.2987-.7965.2987c-.1991 0-.3982-.0498-.5475-.1493-.1992-.0996-.2987-.2489-.3983-.448l-1.4933-3.2854h-8.3627l-1.4933 3.2854c-.0996.1991-.2489.3484-.3983.448-.1991.0995-.3484.1493-.5475.1493-.2987 0-.5974-.0996-.7965-.2987-.2489-.1991-.3484-.448-.3484-.6969 0-.0995.0498-.2489.0995-.448l6.4214-13.5894c.0996-.2488.2987-.3982.4978-.5475.2489-.1493.4978-.1991.7467-.1991.2488 0 .4977.0498.7466.1991s.3982.2987.4978.5475l6.4214 13.5894c.0995.1991.0995.3485.0995.448zm-11.1005-4.7289h6.6703l-3.3351-7.2676z"/><path d="m115.365 43.5323c.199.1991.299.4978.299.8462v13.4899c0 .3484-.1.5973-.299.7964s-.448.2987-.797.2987c-.298 0-.547-.0996-.746-.2987s-.299-.448-.299-.7964v-10.2543l-4.48 8.2134c-.299.4977-.647.7466-1.095.7466s-.846-.2489-1.095-.7466l-4.48-8.1138v10.1547c0 .3484-.1.5973-.299.7964s-.448.2987-.796.2987c-.299 0-.598-.0996-.747-.2987-.199-.1991-.299-.448-.299-.7964v-13.4899c0-.3484.1-.5973.299-.8462.199-.1991.498-.2987.846-.2987.448 0 .847.2489 1.145.7965l5.476 10.0551 5.426-10.0551c.298-.5476.647-.7965 1.095-.7965.348-.0497.597.0498.846.2987z"/><path d="m129.65 58.6153c-.199-.1992-.298-.4978-.298-.8463v-13.44c0-.3485.099-.5974.298-.8463.199-.1991.498-.2986.846-.2986.349 0 .648.0995.847.2986.199.1992.298.4978.298.8463v13.44c0 .3485-.099.6471-.298.8463-.199.1991-.498.2986-.896.2986-.349 0-.598-.0995-.797-.2986z"/><path d="m145.131 58.5157c-.199-.1991-.299-.448-.299-.7467v-13.44c0-.3485.1-.5974.299-.8463.199-.1991.497-.2986.846-.2986.348 0 .647.0995.846.2986.199.1992.299.4978.299.8463v12.5938h6.919c.348 0 .597.0996.796.2489.2.1493.299.3982.299.6969s-.099.5475-.299.6969c-.199.1493-.448.2489-.796.2489h-8.164c-.249 0-.497-.0996-.746-.2987z"/><path d="m175.047 43.1841c.299 0 .498.0995.747.2986.199.1992.348.4481.348.7467 0 .2489-.099.4978-.299.6969l-5.376 6.4712v6.3715c0 .3485-.099.6471-.348.8463-.199.1991-.498.2986-.846.2986-.349 0-.647-.0995-.847-.2986-.199-.1992-.298-.4978-.298-.8463v-6.3715l-5.376-6.4712c-.199-.1991-.299-.448-.299-.6969 0-.2986.1-.4978.299-.7467.199-.1991.448-.2986.746-.2986.299 0 .548.1493.797.3982l4.978 6.0231 4.977-6.0231c.249-.2489.498-.3982.797-.3982z"/></g></svg>