<svg fill="none" height="54" viewBox="0 0 158 54" width="158" xmlns="http://www.w3.org/2000/svg" xmlns:xlink="http://www.w3.org/1999/xlink"><linearGradient id="a" gradientUnits="userSpaceOnUse" x1="17.9544" x2="17.9544" y1="6.00083" y2="53.4101"><stop offset="0" stop-color="#fcc600"/><stop offset=".3393" stop-color="#ef8e33"/><stop offset=".6809" stop-color="#e86432"/><stop offset="1" stop-color="#e95364"/></linearGradient><mask id="b" height="48" maskUnits="userSpaceOnUse" width="36" x="0" y="6"><path d="m9.92688 9.56807c0 1.96243 1.60562 3.56803 3.56812 3.56803.1784 0 .3568 0 .5352-.0446l2.453 8.0282-4.1033-1.561c.0446-.223.0892-.4014.0892-.6244 0-1.6057-1.2934-2.8991-2.89902-2.8991-1.60564 0-2.89906 1.2934-2.89906 2.8991 0 1.6056 1.29342 2.899 2.89906 2.899.75822 0 1.51642-.3122 2.05162-.892l5.5751 2.7207 1.5611 5.1291-14.04933-4.2371c.17841-.446.17841-.892.0892-1.338-.1338-.6245-.49061-1.1597-1.07042-1.5165-1.11502-.7136-2.63145-.4014-3.345069.7136-.713615 1.1151-.401406 2.6315.713619 3.3451.53521.3568 1.20422.446 1.82864.3122.3568-.0892.71361-.2676 1.02582-.4906l14.80754 5.9319-.1338 6.0212-10.21365-3.8803c.223-1.338-.53521-2.6761-1.82864-3.1667-.71361-.2676-1.51643-.2676-2.23005.0446-.71361.3122-1.24882.892-1.51643 1.6056-.2676.7137-.2676 1.5165.04461 2.2301.3122.7136.89201 1.2488 1.60563 1.5164.31221.1338.66901.1784 1.02582.1784.98122 0 1.87324-.4906 2.40845-1.2934l10.57046 5.5751-.2676 11.5071c0 .8474.7136 1.561 1.561 1.561s1.561-.7136 1.561-1.561l-.3122-13.1573 9.277-5.7981c.5798.8474 1.5164 1.338 2.5423 1.338.4906 0 .9812-.1338 1.4272-.3568.7136-.4014 1.2488-1.0258 1.5164-1.8287.223-.8028.1784-1.6502-.223-2.3638s-1.0258-1.2934-1.8286-1.5164-1.6503-.1784-2.3639.223c-1.2042.6244-1.8286 1.9624-1.6056 3.2558l-8.831 4.0141-.0892-4.4155 10.2136-10.2582v-.0446c.6244.2676 1.2935.3122 1.9625.1338.8474-.1784 1.561-.7136 2.0516-1.4718.446-.7582.6244-1.6056.4014-2.4531-.1784-.8474-.7136-1.561-1.4718-2.0516-.7582-.446-1.6056-.6244-2.4531-.4014-.8474.1784-1.561.7136-2.0516 1.4718-.446.7582-.6244 1.6056-.4014 2.4531.1338.6244.4906 1.2042.9812 1.6502v.0446l-9.2324 7.6268-1.7394-4.7723c.0446-.0446.0446-.0892.0446-.1338v-.0446l2.9882-4.9061c.3122.0892.6691.1338.9813.1338 1.9624 0 3.568-1.6057 3.568-3.5681 0-1.9625-1.6056-3.5681-3.568-3.5681-1.9625 0-3.5681 1.6056-3.5681 3.5681 0 .9812.4014 1.9178 1.115 2.5868l-2.5422 3.3897-2.8991-7.939c1.115-.6244 1.8286-1.8286 1.8286-3.12203 0-1.96244-1.6056-3.56807-3.568-3.56807-1.9625 0-3.56812 1.60563-3.56812 3.56807z" fill="#fff"/></mask><g mask="url(#b)"><path d="m36.1522 6h-36.394388v47.4108h36.394388z" fill="url(#a)"/></g><g fill="#6f6f6e"><path d="m48.0612 31.6456c-.2676-.2677-.446-.6691-.446-1.1597v-11.9976c0-.4906.1338-.892.446-1.1596.2676-.2677.6691-.4015 1.2043-.4015h4.5047c1.6948 0 3.1666.3123 4.4155.8921 1.2488.5798 2.1854 1.4718 2.8098 2.5868.669 1.115.9812 2.4977.9812 4.0587s-.3122 2.9437-.9812 4.0587c-.6244 1.1596-1.6056 2.007-2.8098 2.6314-1.2489.5799-2.7207.8921-4.4601.8921h-4.5047c-.4906.0446-.8921-.0892-1.1597-.4014zm5.4414-2.2747c3.345 0 5.0399-1.6056 5.0399-4.8615s-1.6949-4.8615-5.0399-4.8615h-2.4085v9.723z"/><path d="m69.1117 31.7346c-.3122-.3122-.4906-.7136-.4906-1.2042v-12.0423c0-.4906.1784-.892.4906-1.2042s.7582-.446 1.2934-.446.9812.1338 1.2935.446c.3122.3122.4906.7136.4906 1.2042v12.0423c0 .5352-.1338.9366-.4906 1.2042-.3123.3122-.7583.446-1.2935.446-.5352.0446-.9812-.1338-1.2934-.446z"/><path d="m92.3943 24.0634c.2676.223.3568.5352.3568.892v4.1925c0 .5798-.0446 1.0258-.1338 1.338-.0892.3123-.2676.5799-.4906.7583s-.5798.3568-1.0704.4906c-.5798.1784-1.2489.3122-2.0071.4014s-1.4718.1338-2.1408.1338c-1.6502 0-3.1221-.3122-4.3263-.9366-1.2042-.6245-2.1408-1.5165-2.8099-2.6761-.669-1.1596-.9812-2.5422-.9812-4.1479 0-1.561.3122-2.9436.9812-4.1033.6245-1.1596 1.5611-2.0516 2.7653-2.676s2.6314-.9366 4.2371-.9366c2.0516 0 3.7911.5352 5.1291 1.561.223.1784.3568.3568.4906.5352.0892.1784.1338.4014.1338.6244 0 .3568-.0892.669-.3122.9366s-.4906.4014-.7582.4014c-.1784 0-.3568-.0446-.5352-.0892-.1338-.0446-.3568-.1338-.5798-.2676-.6245-.3568-1.2043-.6244-1.7395-.8028s-1.115-.223-1.7394-.223c-3.0329 0-4.5493 1.6948-4.5493 5.0845 0 1.7395.4014 3.0329 1.1596 3.9249.8028.8474 1.9625 1.2934 3.5681 1.2934.8474 0 1.7394-.0892 2.5868-.3122v-3.345h-2.0516c-.446 0-.7582-.0892-1.0258-.3123-.223-.1784-.3568-.4906-.3568-.8474s.1338-.669.3568-.8474c.223-.223.5798-.3122 1.0258-.3122h3.8357c.446-.0892.7582.0446.9812.2676z"/><path d="m48.1058 8.81007c-.1338-.1338-.223-.3122-.223-.53521v-6.82394c0-.223.0446-.40141.1784-.535212.1338-.133803.3122-.178403.5352-.178403h2.8545c.892 0 1.561.223005 2.0516.669015s.7136 1.07042.7136 1.82864c0 .75821-.223 1.42723-.7136 1.82864-.4906.446-1.1596.66901-2.0516.66901h-2.0963v2.49765c0 .22301-.0892.40141-.223.53521-.1338.13381-.3122.22301-.5352.22301-.1784 0-.3568-.0446-.4906-.17841zm3.2113-4.19248c1.0258 0 1.561-.44601 1.561-1.33803s-.5352-1.33803-1.561-1.33803h-1.8733v2.67606z"/><path d="m56.3123 8.67602c-.446-.223-.7582-.57981-1.0258-1.02582-.223-.44601-.3568-.98122-.3568-1.56103s.1338-1.11502.3568-1.56103.5798-.80282 1.0258-1.02583c.446-.223.9366-.3568 1.5164-.3568.5799 0 1.0705.1338 1.5165.3568.446.22301.7582.57982 1.0258 1.02583.223.44601.3568.98122.3568 1.56103s-.1338 1.11502-.3568 1.56103-.5798.80282-1.0258 1.02582c-.446.22301-.9366.35681-1.5165.35681-.5798 0-1.115-.1338-1.5164-.35681zm2.5869-1.24882c.2676-.31221.3568-.75822.3568-1.38263 0-.57981-.1338-1.07042-.3568-1.38263-.2676-.31221-.6244-.49061-1.0705-.49061-.446 0-.8028.1784-1.0704.49061s-.3568.75822-.3568 1.38263.1338 1.07042.3568 1.38263c.2676.3122.6244.44601 1.0704.44601.4461.0446.8029-.13381 1.0705-.44601z"/><path d="m69.7365 3.23471c.0892-.0892.223-.0892.3568-.0892.1785 0 .3569.0446.4907.1784.1338.13381.223.26761.223.44601 0 .0892 0 .1784-.0446.26761l-1.9179 4.50469c-.0446.1338-.1784.26761-.2676.35681-.1338.0892-.2676.1338-.446.1338-.1338 0-.2676-.0446-.4014-.1338s-.223-.1784-.2676-.35681l-1.3826-3.34507-1.3381 3.34507c-.0446.1338-.1784.26761-.2676.35681-.1338.0892-.2676.1338-.446.1338-.1338 0-.2676-.0446-.4014-.1338s-.223-.1784-.3122-.35681l-1.9178-4.50469c-.0446-.08921-.0446-.17841-.0446-.26761 0-.1784.0892-.3122.223-.44601.1338-.1338.3122-.1784.4906-.1784.1338 0 .2676.0446.3568.0892s.1784.1784.223.31221l1.3826 3.52347 1.4273-3.52347c.0446-.13381.1338-.26761.2676-.31221.1338-.0892.223-.0892.4014-.0892.1338 0 .2676.0446.4014.0892.1338.0892.223.1784.2676.31221l1.4272 3.52347 1.338-3.52347c0-.13381.0892-.22301.1784-.31221z"/><path d="m76.4709 7.5164c.0892.0892.1338.223.1338.40141 0 .223-.1338.44601-.446.62441-.2676.1338-.5798.26761-.892.35681s-.669.1338-.9366.1338c-.8921 0-1.6503-.2676-2.1855-.80282-.5352-.53521-.8028-1.24882-.8028-2.14084 0-.57981.1338-1.11502.3568-1.56103s.5798-.80282.9812-1.02583c.4014-.2676.892-.3568 1.4273-.3568.4906 0 .9366.1338 1.338.3568.4014.22301.669.53522.892.93663.223.4014.3122.89201.3122 1.47183 0 .3122-.1338.49061-.446.49061h-3.4343c.0446.53521.1784.93662.446 1.15962.2676.22301.6245.35681 1.1151.35681.2676 0 .446-.0446.669-.0892.223-.04461.4014-.13381.6244-.26761s.4014-.1784.4906-.1784c.1784 0 .3122.0446.3568.1338zm-3.2559-2.98826c-.223.2676-.3568.62441-.446 1.07042h2.6315c0-.49061-.1338-.84742-.3568-1.07042-.223-.22301-.5352-.35681-.892-.35681-.4014-.0446-.7137.0892-.9367.35681z"/><path d="m81.5124 3.27943c.1338.08921.1784.26761.1784.44601 0 .22301-.0446.35681-.1338.44601s-.2676.17841-.5352.17841l-.3568.0446c-.446.0446-.8028.223-1.0258.44601-.223.2676-.3122.57981-.3122.98122v2.45305c0 .223-.0892.40141-.223.53521s-.3122.17841-.5352.17841-.4014-.04461-.5352-.17841c-.1339-.1338-.2231-.31221-.2231-.53521v-4.46009c0-.22301.0892-.40141.2231-.49061.1338-.13381.3122-.17841.4906-.17841.223 0 .3568.0446.4906.17841.1338.1338.1784.2676.1784.49061v.44601c.1338-.35681.3568-.62442.669-.80282.3122-.17841.6244-.31221.9812-.31221h.1784c.1784-.0446.3568 0 .4906.1338z"/><path d="m86.9982 7.5164c.0892.0892.1339.223.1339.40141 0 .223-.1338.44601-.4461.62441-.2676.1338-.5798.26761-.892.35681s-.669.1338-.9366.1338c-.892 0-1.6502-.2676-2.1854-.80282-.5352-.53521-.8029-1.24882-.8029-2.14084 0-.57981.1339-1.11502.3569-1.56103s.5798-.80282.9812-1.02583c.4014-.2676.892-.3568 1.4272-.3568.4906 0 .9366.1338 1.338.3568.4014.22301.669.53522.8921.93663.223.4014.3121.89201.3121 1.47183 0 .3122-.1338.49061-.446.49061h-3.4342c.0446.53521.1784.93662.446 1.15962.2676.22301.6244.35681 1.115.35681.2676 0 .446-.0446.669-.0892.223-.04461.4014-.13381.6244-.26761s.4014-.1784.4906-.1784c.1784 0 .2676.0446.3568.1338zm-3.2558-2.98826c-.223.2676-.3568.62441-.446 1.07042h2.6314c0-.49061-.1338-.84742-.3568-1.07042-.223-.22301-.5352-.35681-.892-.35681-.4014-.0446-.7136.0892-.9366.35681z"/><path d="m93.6435.870954c.1338.133806.223.267606.223.490606v6.95775c0 .223-.0446.35681-.1784.49061s-.3122.1784-.5352.1784-.4014-.0446-.5352-.1784-.1784-.31221-.1784-.49061v-.31221c-.1784.31221-.4015.57982-.7583.75822s-.669.2676-1.115.2676c-.4906 0-.9366-.1338-1.2934-.3568-.4014-.26761-.669-.57982-.892-1.07043-.223-.44601-.3122-.98122-.3122-1.56103s.0892-1.11502.3122-1.56103.4906-.80282.892-1.02582c.4014-.22301.8028-.35681 1.2934-.35681.4014 0 .7582.0892 1.0704.26761.3122.1784.5798.4014.7137.71361v-2.76526c0-.1784.0445-.356805.1784-.490608.1338-.133803.3122-.178403.5352-.178403s.446.089202.5798.223005zm-1.6056 6.556336c.2676-.31221.3568-.75821.3568-1.33803 0-.57981-.1338-1.02582-.3568-1.33802-.2677-.31221-.6245-.49062-1.0705-.49062s-.8028.13381-1.0704.44601c-.2676.31221-.4014.75822-.4014 1.33803s.1338 1.02582.4014 1.38263.6244.49061 1.0704.49061.8028-.1784 1.0705-.49061z"/><path d="m103.055 3.45764c.401.22301.669.57981.892 1.02582s.312.93662.312 1.56103c0 .62442-.089 1.11503-.312 1.56104s-.491.80282-.892 1.07042c-.402.26761-.803.35681-1.294.35681-.401 0-.758-.0892-1.115-.26761-.356-.1784-.579-.44601-.7578-.75821v.3122c0 .22301-.0446.35681-.1784.49061-.1338.13381-.3122.17841-.5352.17841s-.4015-.0446-.5353-.17841c-.1338-.1338-.1784-.3122-.1784-.49061v-6.95774c0-.22301.0892-.35681.223-.490613s.3122-.178404.5352-.178404.4015.044601.5353.178404.1784.267603.1784.490613v2.72065c.1782-.3122.4012-.53521.7132-.71361.313-.1784.669-.26761 1.071-.26761.535 0 .981.13381 1.338.35681zm-.625 3.96948c.268-.3122.402-.80281.402-1.38263 0-.57981-.134-1.02582-.357-1.33802-.223-.31221-.624-.44601-1.07-.44601s-.803.1784-1.071.49061c-.267.31221-.3566.75821-.3566 1.33803 0 .57981.1336 1.02582.3566 1.33802.268.31221.625.49061 1.071.49061.401 0 .758-.1784 1.025-.49061z"/><path d="m109.565 3.23488c.089-.0446.223-.08921.357-.08921.178 0 .357.04461.49.17841.134.1338.223.2676.223.44601 0 .0892-.044.1784-.089.2676l-3.167 6.64551c-.133.2676-.356.4014-.624.4014-.178 0-.357-.0446-.491-.1784-.133-.1338-.223-.2676-.223-.446 0-.0892.045-.1784.09-.3122l.802-1.65021-2.14-4.5047c-.045-.0892-.045-.1784-.045-.2676 0-.17841.089-.31221.223-.44601.134-.13381.312-.17841.535-.17841.134 0 .268.04461.357.08921s.178.1784.268.3122l1.605 3.61268 1.606-3.56808c.045-.1338.134-.223.223-.3122z"/><path d="m100.2 31.7346c-.3126-.3122-.491-.7136-.491-1.2042v-12.0423c0-.4906.1784-.892.491-1.2042.312-.3122.758-.446 1.293-.446s.981.1338 1.293.446c.313.3122.491.7136.491 1.2042v12.0423c0 .5352-.178.9366-.491 1.2042-.312.3122-.758.446-1.293.446-.535.0446-.981-.1338-1.293-.446z"/><path d="m114.472 31.7348c-.312-.3123-.49-.7137-.49-1.2043v-10.8826h-3.613c-1.115 0-1.65-.446-1.65-1.3826 0-.892.535-1.3381 1.65-1.3381h10.704c1.115 0 1.65.4461 1.65 1.3381 0 .9366-.535 1.3826-1.65 1.3826h-3.612v10.8826c0 .4906-.179.892-.491 1.2043-.312.3122-.758.446-1.294.446-.446 0-.892-.1338-1.204-.446z"/><path d="m141.055 30.709c0 .4014-.179.7582-.491 1.0258s-.714.4014-1.16.4014c-.267 0-.535-.0892-.802-.223-.268-.1338-.446-.3568-.58-.669l-1.16-2.5423h-7.582l-1.16 2.5423c-.133.3122-.312.5352-.579.669-.223.1338-.536.223-.803.223-.446 0-.803-.1338-1.16-.4014s-.535-.6244-.535-1.0258c0-.1785.045-.4461.178-.6691l6.021-12.176c.179-.3568.402-.6244.759-.8028.312-.1784.669-.2676 1.07-.2676.402 0 .758.0892 1.071.2676.312.1784.579.446.758.7582l6.021 12.176c.089.3122.134.5352.134.7137zm-10.571-4.5047h5.174l-2.587-5.5752z"/><path d="m147.43 31.6456c-.267-.2676-.446-.669-.446-1.1597v-12.0422c0-.4906.134-.892.491-1.2042.312-.3122.714-.446 1.293-.446.536 0 .937.1338 1.294.446.312.3122.49.7136.49 1.2042v10.8826h5.62c1.071 0 1.65.446 1.65 1.3827 0 .892-.535 1.338-1.65 1.338h-7.582c-.491.0446-.892-.0892-1.16-.4014z"/><path d="m47.9278 53.1433c-.1784-.1784-.2676-.446-.2676-.7582v-11.9976c0-.3122.0892-.5352.2676-.7136s.446-.2677.7582-.2677h7.3145c.669 0 .9813.2677.9813.8475 0 .5352-.3123.8474-.9813.8474h-6.2887v4.3709h5.8873c.669 0 .9812.2676.9812.8474 0 .5352-.3122.8474-.9812.8474h-5.8873v5.3075c0 .3122-.0892.5798-.2676.7582s-.446.2676-.7582.2676c-.3568-.0892-.5798-.1784-.7582-.3568z"/><path d="m79.1479 52.5189c0 .2676-.0892.4461-.3122.6245s-.446.2676-.7136.2676c-.1784 0-.3568-.0446-.4906-.1338-.1784-.0893-.2676-.2231-.3568-.4015l-1.3381-2.9436h-7.4929l-1.338 2.9436c-.0892.1784-.223.3122-.3568.4015-.1785.0892-.3123.1338-.4907.1338-.2676 0-.5352-.0892-.7136-.2676-.223-.1784-.3122-.4015-.3122-.6245 0-.0892.0446-.223.0892-.4014l5.7535-12.176c.0892-.223.2677-.3568.4461-.4906.223-.1338.446-.1784.669-.1784s.446.0446.669.1784.3568.2676.446.4906l5.7535 12.176c.0892.1784.0892.3122.0892.4014zm-9.946-4.2371h5.9765l-2.9882-6.5117z"/><path d="m103.365 39.6289c.179.1784.268.446.268.7582v12.0868c0 .3122-.089.5352-.268.7136-.178.1784-.401.2676-.713.2676-.268 0-.491-.0892-.669-.2676-.179-.1784-.268-.4014-.268-.7136v-9.1878l-4.014 7.3592c-.2676.446-.5798.669-.9812.669s-.7582-.223-.9812-.669l-4.0141-7.27v9.0986c0 .3122-.0892.5352-.2676.7136s-.4014.2676-.7137.2676c-.2676 0-.5352-.0892-.669-.2676-.1784-.1784-.2676-.4014-.2676-.7136v-12.0868c0-.3122.0892-.5352.2676-.7582.1784-.1784.4461-.2677.7583-.2677.4014 0 .7582.2231 1.0258.7137l4.9061 9.0094 4.8616-9.0094c.267-.4906.58-.7137.981-.7137.312-.0446.535.0447.758.2677z"/><path d="m116.166 53.1432c-.178-.1784-.268-.446-.268-.7582v-12.0423c0-.3122.09-.5352.268-.7582.178-.1784.446-.2676.758-.2676s.58.0892.758.2676c.179.1784.268.446.268.7582v12.0423c0 .3122-.089.5798-.268.7582-.178.1784-.446.2676-.802.2676-.313 0-.536-.0892-.714-.2676z"/><path d="m130.037 53.054c-.178-.1784-.267-.4014-.267-.669v-12.0423c0-.3122.089-.5352.267-.7582.179-.1784.446-.2676.758-.2676.313 0 .58.0892.759.2676.178.1784.267.446.267.7582v11.2841h6.2c.312 0 .535.0892.713.223.179.1338.268.3568.268.6244s-.089.4906-.268.6244c-.178.1338-.401.223-.713.223h-7.315c-.223 0-.446-.0892-.669-.2676z"/><path d="m156.843 39.3169c.267 0 .446.0892.669.2676.178.1784.312.4014.312.669 0 .223-.089.446-.268.6244l-4.817 5.7982v5.7089c0 .3122-.089.5798-.312.7582-.178.1784-.446.2676-.758.2676s-.58-.0892-.758-.2676c-.179-.1784-.268-.446-.268-.7582v-5.7089l-4.817-5.7982c-.178-.1784-.267-.4014-.267-.6244 0-.2676.089-.446.267-.669.179-.1784.402-.2676.669-.2676.268 0 .491.1338.714.3568l4.46 5.3967 4.46-5.3967c.223-.223.446-.3568.714-.3568z"/></g></svg>